<?xml version="1.0" standalone="no"?>
<!DOCTYPE svg PUBLIC "-//W3C//DTD SVG 20010904//EN"
 "http://www.w3.org/TR/2001/REC-SVG-20010904/DTD/svg10.dtd">
<svg version="1.0" xmlns="http://www.w3.org/2000/svg"
 width="1300.000000pt" height="1600.000000pt" viewBox="0 0 1300.000000 1600.000000"
 preserveAspectRatio="xMidYMid meet">

<g transform="translate(0.000000,1600.000000) scale(0.100000,-0.100000)"
fill="#000000" stroke="none">
<path d="M3575 15183 c-38 -2 -74 -8 -79 -14 -6 -5 -18 -9 -28 -9 -10 0 -18
-4 -18 -9 0 -14 -16 -17 -150 -35 -69 -9 -139 -24 -157 -33 -18 -8 -42 -13
-54 -10 -32 9 -175 -21 -212 -43 -18 -11 -45 -20 -60 -20 -28 0 -56 -10 -142
-50 -22 -10 -58 -24 -80 -31 -22 -6 -49 -15 -60 -20 -11 -4 -44 -15 -73 -24
-28 -9 -64 -29 -80 -43 -15 -15 -39 -33 -54 -39 -16 -7 -28 -17 -28 -23 0 -5
-5 -10 -11 -10 -21 0 -155 -95 -235 -167 -45 -40 -86 -73 -91 -73 -5 0 -28
-23 -52 -50 -24 -28 -46 -48 -49 -45 -7 7 -62 -45 -62 -58 0 -6 -20 -32 -45
-58 -25 -26 -45 -53 -45 -60 0 -6 -11 -19 -24 -30 -22 -18 -98 -160 -111 -209
0 -3 -9 -19 -18 -37 -9 -18 -17 -41 -17 -52 0 -11 -8 -26 -19 -33 -10 -7 -22
-28 -26 -46 -4 -18 -13 -36 -21 -39 -8 -3 -14 -16 -14 -28 0 -13 -4 -25 -10
-27 -16 -5 -33 -166 -27 -253 6 -83 9 -99 21 -126 11 -25 1 -230 -13 -264 -13
-32 -29 -63 -67 -134 -13 -24 -24 -52 -24 -62 0 -9 -4 -19 -8 -21 -19 -8 -60
-78 -75 -129 -10 -31 -24 -62 -32 -69 -7 -6 -12 -17 -9 -25 7 -16 -46 -30 -77
-20 -40 13 -77 -13 -98 -71 -22 -57 -20 -76 12 -111 16 -18 31 -23 72 -23 28
0 56 5 63 12 22 22 26 -23 8 -116 -10 -50 -27 -106 -38 -124 -20 -32 -64 -62
-91 -62 -8 0 -26 -12 -41 -26 -21 -22 -26 -36 -26 -76 0 -90 69 -125 141 -73
l34 26 7 -38 c4 -21 7 -66 7 -101 1 -54 -3 -66 -24 -87 -13 -14 -28 -25 -32
-25 -18 0 -53 -68 -53 -102 0 -61 16 -87 65 -108 l46 -20 -2 -87 c-2 -49 1
-159 6 -245 5 -108 5 -161 -3 -170 -6 -8 -10 -60 -10 -123 0 -114 -20 -305
-33 -305 -8 0 -15 -44 -29 -190 -11 -112 -14 -127 -23 -136 -4 -4 -7 -39 -7
-77 0 -91 -21 -250 -34 -259 -6 -4 -14 -55 -18 -115 -13 -177 -19 -227 -29
-239 -5 -7 -12 -36 -16 -65 -3 -30 -10 -59 -15 -66 -5 -7 -9 -27 -7 -45 1 -18
-1 -40 -4 -48 -3 -8 -10 -64 -16 -124 -6 -61 -16 -113 -21 -116 -6 -3 -12 -26
-15 -51 -13 -109 -17 -135 -24 -144 -8 -11 -27 -90 -36 -152 -4 -24 -11 -45
-15 -48 -5 -3 -7 -12 -3 -20 3 -9 1 -21 -5 -28 -5 -6 -13 -46 -17 -87 -4 -41
-11 -80 -16 -86 -11 -13 -29 -134 -29 -196 0 -29 -5 -48 -11 -48 -6 0 -9 -8
-6 -19 2 -10 -4 -70 -15 -132 -24 -141 -22 -132 -31 -145 -3 -6 -6 -47 -6 -90
0 -44 -2 -95 -5 -114 -2 -19 -7 -66 -11 -105 -4 -38 -10 -74 -15 -80 -4 -5
-15 -48 -25 -95 -9 -47 -21 -94 -25 -105 -5 -11 -11 -77 -14 -147 -4 -70 -11
-140 -17 -155 -6 -16 -12 -37 -14 -48 -13 -83 -39 -202 -46 -211 -5 -6 -13
-64 -19 -129 -6 -65 -14 -123 -19 -129 -11 -15 -19 -70 -27 -191 -3 -55 -10
-105 -15 -111 -5 -6 -14 -55 -20 -110 -6 -54 -14 -106 -16 -114 -3 -8 -5 -38
-4 -66 2 -29 -2 -55 -8 -59 -6 -3 -11 -34 -11 -68 0 -73 -18 -215 -30 -239 -5
-9 -12 -62 -16 -117 -4 -56 -11 -104 -16 -107 -5 -3 -8 -66 -7 -139 0 -74 -2
-138 -5 -144 -10 -15 -12 -1024 -3 -1039 5 -7 8 -118 7 -247 0 -129 4 -242 9
-252 10 -20 31 -212 31 -290 0 -29 4 -54 9 -57 4 -3 12 -34 15 -68 4 -35 13
-76 21 -93 7 -16 18 -52 24 -78 7 -27 18 -59 25 -70 8 -12 16 -37 20 -55 6
-34 27 -87 51 -132 7 -14 28 -54 45 -90 18 -36 37 -74 43 -85 6 -11 39 -75 73
-142 34 -67 71 -135 83 -151 11 -17 21 -35 21 -41 0 -6 4 -11 8 -11 5 0 15
-18 22 -40 7 -22 17 -40 22 -40 4 0 7 -3 7 -7 -2 -13 25 -73 33 -73 4 0 16
-19 28 -42 35 -72 53 -103 90 -153 36 -48 266 -285 277 -285 3 0 41 -34 84
-75 43 -41 86 -75 94 -75 8 0 15 -4 15 -10 0 -5 5 -10 12 -10 6 0 25 -10 42
-23 17 -13 65 -40 106 -61 71 -35 116 -59 150 -78 8 -4 31 -16 50 -26 19 -9
36 -20 38 -24 2 -5 9 -8 16 -8 7 0 27 -11 45 -24 18 -13 48 -27 67 -30 19 -4
34 -11 34 -16 0 -6 9 -10 19 -10 11 0 23 -4 26 -10 3 -5 16 -10 28 -10 13 0
31 -6 42 -14 11 -7 33 -16 50 -20 16 -4 49 -16 72 -27 24 -11 58 -22 76 -26
17 -3 34 -9 37 -13 7 -11 155 -40 200 -40 22 0 41 -4 44 -9 3 -4 56 -14 118
-20 62 -7 122 -16 133 -21 11 -5 70 -14 130 -20 61 -6 119 -16 130 -20 19 -9
185 -23 390 -35 54 -3 104 -10 110 -15 12 -9 289 -30 410 -30 45 0 84 -3 87
-6 4 -3 104 -5 223 -4 119 0 222 -3 229 -8 6 -5 63 -12 126 -15 67 -3 135 -12
164 -22 45 -15 171 -16 1576 -13 1137 2 1531 6 1541 15 8 6 89 16 193 22 99 6
184 15 190 20 13 11 171 31 242 31 27 0 54 4 60 10 5 5 56 12 114 15 110 7
215 18 315 35 33 5 203 14 379 20 175 5 324 14 330 19 6 5 92 14 191 21 99 7
185 16 190 20 6 4 152 11 325 14 397 8 873 27 880 36 3 4 160 12 350 19 190 7
349 17 354 22 6 5 66 9 135 9 163 1 254 13 316 43 49 24 117 89 142 136 29 52
8 267 -32 335 -14 24 -25 51 -25 60 0 24 -206 229 -255 254 -74 37 -119 62
-124 69 -21 29 -260 140 -325 152 -89 16 -116 42 -116 112 0 45 15 101 44 164
8 17 17 47 21 67 4 21 10 38 14 38 13 0 19 166 6 197 -9 23 -7 127 6 228 7 58
7 94 -2 130 -7 28 -11 73 -11 100 1 28 -2 59 -7 70 -5 11 -15 54 -21 95 -7 41
-16 80 -20 85 -4 6 -13 33 -19 60 -7 28 -17 59 -21 70 -5 11 -16 59 -26 108
-9 48 -20 87 -24 87 -4 0 -13 18 -20 40 -7 22 -16 40 -20 40 -3 0 -12 28 -19
62 -7 35 -17 69 -23 76 -6 6 -7 12 -3 12 4 0 3 6 -2 12 -5 7 -16 33 -23 58 -8
25 -25 63 -39 85 -40 63 -59 97 -83 143 -12 23 -28 42 -35 42 -7 0 -13 5 -13
10 0 6 -20 36 -45 68 -25 31 -45 61 -45 65 0 38 -352 388 -412 410 -10 3 -18
11 -18 17 0 5 -6 10 -13 10 -8 0 -29 11 -48 25 -79 59 -136 96 -169 111 -19 9
-48 27 -63 40 -16 13 -35 24 -43 24 -8 0 -14 5 -14 10 0 6 -6 10 -12 10 -7 0
-24 9 -38 20 -14 11 -32 20 -41 20 -9 0 -34 12 -56 28 -59 41 -76 51 -103 63
-62 27 -93 47 -105 70 -25 44 -45 92 -45 105 0 7 -5 14 -10 16 -6 2 -15 32
-21 68 -6 36 -15 74 -20 85 -5 11 -12 144 -17 296 -6 207 -11 281 -21 293 -7
9 -11 22 -8 29 3 7 -1 21 -9 32 -8 10 -14 26 -14 35 0 9 -27 70 -60 134 -33
65 -60 123 -60 130 0 7 -9 21 -20 31 -11 10 -20 23 -20 28 0 12 -34 89 -55
127 -8 14 -24 44 -35 67 -12 24 -39 63 -60 88 -22 26 -40 52 -40 59 0 24 -33
81 -80 136 -25 30 -54 71 -63 92 -9 20 -39 54 -65 76 -26 23 -56 58 -66 79
-10 21 -29 59 -42 84 -31 61 -41 133 -58 446 -14 229 -18 266 -36 295 -11 18
-20 44 -20 59 0 14 -4 29 -9 35 -13 14 -31 98 -31 148 0 25 -5 48 -11 51 -6 4
-9 31 -8 61 2 29 0 57 -4 61 -4 3 -7 18 -7 32 0 14 -8 40 -19 56 -18 30 -61
204 -61 247 0 12 -12 39 -26 60 -17 24 -29 57 -32 88 -2 28 -9 53 -13 56 -5 3
-9 14 -9 24 0 25 -26 103 -52 160 -32 68 -37 81 -48 135 -6 28 -23 75 -37 105
-27 58 -31 66 -58 145 -10 28 -26 61 -37 74 -10 13 -18 33 -18 45 0 11 -7 30
-15 40 -8 11 -15 25 -15 32 0 7 -5 25 -12 41 -6 15 -12 31 -12 35 -1 3 -4 10
-8 14 -5 4 -8 16 -8 27 0 11 -11 39 -24 61 -13 23 -33 70 -45 105 -12 36 -30
80 -42 100 -11 19 -33 73 -49 120 -26 79 -89 212 -111 236 -5 5 -9 16 -9 24 0
8 -14 32 -30 55 -83 113 -130 194 -130 225 0 11 -12 33 -26 50 -32 38 -84 138
-84 161 0 10 -9 28 -19 41 -22 29 -55 99 -53 115 1 6 -18 31 -42 57 -25 25
-54 65 -65 89 -12 24 -34 61 -51 83 -16 22 -32 55 -36 73 -4 20 -18 42 -36 55
-51 38 -168 213 -168 251 0 6 -19 31 -42 56 -41 44 -98 140 -98 164 0 7 -22
39 -50 70 -27 31 -50 64 -50 72 0 8 -39 56 -88 106 -98 104 -162 181 -162 194
0 5 -24 39 -53 75 -28 36 -63 81 -77 99 -14 19 -59 77 -101 129 -41 53 -89
116 -106 141 -17 25 -40 54 -52 64 -11 11 -21 24 -21 29 0 5 -16 28 -35 51
-99 115 -151 179 -208 255 -34 46 -79 102 -99 124 -21 22 -40 49 -43 61 -15
54 -84 173 -136 233 -32 37 -63 78 -71 92 -7 14 -34 56 -60 92 -27 36 -48 69
-48 73 0 4 -11 22 -24 39 -14 18 -27 44 -31 59 -4 15 -35 60 -70 100 -82 97
-260 268 -278 268 -7 0 -20 15 -28 32 -8 18 -25 38 -39 45 -13 7 -30 19 -36
27 -14 19 -110 86 -124 86 -5 0 -10 4 -10 10 0 5 -15 17 -32 25 -47 22 -67 35
-126 83 -30 23 -60 42 -67 42 -8 0 -20 6 -27 13 -7 7 -29 19 -48 27 -19 8 -37
17 -40 21 -3 4 -27 14 -55 22 -50 16 -145 52 -177 68 -10 5 -46 13 -81 18 -70
10 -137 35 -137 50 0 6 -8 11 -18 11 -10 0 -22 4 -27 9 -6 4 -39 14 -75 21
-36 6 -69 15 -75 19 -14 11 -121 31 -161 31 -18 0 -35 4 -38 9 -9 14 -64 24
-203 36 -51 4 -93 11 -93 14 0 8 9 7 -205 14 -93 2 -201 3 -240 0z m605 -162
c250 -38 338 -53 355 -61 11 -5 52 -14 90 -21 39 -6 75 -15 80 -19 6 -4 26
-11 45 -15 43 -9 167 -57 235 -91 65 -33 174 -104 269 -176 42 -32 78 -58 81
-58 23 0 249 -197 405 -352 125 -125 149 -155 170 -208 8 -19 16 -37 19 -40
17 -14 101 -179 101 -196 0 -6 15 -31 33 -55 18 -24 41 -62 51 -84 11 -22 23
-49 29 -59 5 -11 24 -63 43 -116 38 -111 66 -170 94 -195 11 -10 20 -22 20
-26 0 -17 297 -299 315 -299 13 0 245 -236 245 -250 0 -18 35 -65 122 -162 43
-48 78 -91 78 -95 0 -14 58 -92 110 -148 39 -43 135 -179 256 -363 17 -26 47
-65 67 -87 19 -22 40 -59 46 -82 6 -22 31 -69 56 -102 25 -34 45 -65 45 -69 0
-4 13 -23 30 -42 16 -19 29 -39 30 -43 0 -5 24 -48 54 -96 29 -48 57 -101 60
-118 4 -18 24 -54 45 -80 21 -26 46 -70 56 -96 10 -26 22 -50 26 -53 5 -3 9
-15 9 -27 0 -12 7 -33 14 -47 28 -51 84 -166 90 -187 4 -13 12 -23 17 -23 5 0
9 -12 9 -28 0 -15 6 -36 14 -47 7 -11 17 -31 21 -45 4 -14 18 -39 31 -57 13
-17 24 -38 24 -45 0 -7 18 -49 39 -93 22 -44 47 -107 56 -140 9 -33 36 -100
60 -150 86 -178 114 -241 139 -318 15 -43 33 -88 41 -100 17 -27 75 -198 86
-252 10 -53 84 -300 120 -400 6 -16 20 -66 31 -110 12 -44 34 -125 49 -180 16
-55 31 -118 34 -140 4 -22 15 -67 25 -100 29 -95 53 -286 47 -362 -3 -41 0
-94 8 -133 40 -194 55 -337 56 -550 1 -189 -2 -233 -24 -362 -14 -81 -30 -156
-36 -166 -5 -10 -15 -55 -20 -100 -6 -45 -24 -121 -41 -168 -16 -47 -30 -99
-30 -116 0 -29 -37 -147 -49 -158 -18 -16 -41 -87 -41 -125 0 -34 5 -47 19
-55 30 -16 85 -12 134 9 45 19 127 85 127 102 0 13 48 57 55 50 11 -11 125
122 135 159 5 19 30 65 55 102 29 42 54 94 67 140 21 74 38 97 73 98 34 0 45
-14 76 -100 16 -46 36 -91 43 -100 8 -8 24 -37 36 -65 12 -27 30 -68 40 -90
10 -23 21 -54 25 -70 4 -17 12 -46 20 -65 22 -58 79 -367 91 -495 2 -22 5
-139 8 -260 2 -121 11 -269 20 -330 8 -60 19 -177 26 -260 9 -129 8 -158 -5
-205 -8 -30 -29 -107 -46 -170 -16 -63 -43 -158 -59 -210 -66 -220 -99 -419
-69 -421 41 -3 86 5 125 21 44 19 124 93 124 115 0 7 15 35 33 62 17 27 37 56
42 65 6 8 32 48 58 87 27 40 55 87 63 106 7 18 17 35 21 37 16 7 53 97 53 129
0 52 27 140 49 162 46 46 131 17 305 -103 54 -37 145 -113 149 -124 3 -7 29
-24 59 -38 40 -19 91 -65 206 -181 83 -86 152 -160 152 -165 0 -5 20 -31 45
-58 25 -27 48 -57 51 -66 3 -10 10 -18 15 -18 12 0 69 -118 69 -144 0 -10 18
-47 40 -82 21 -34 45 -84 51 -111 7 -26 17 -55 23 -63 27 -37 55 -111 67 -180
7 -41 23 -102 35 -136 12 -33 32 -112 44 -175 23 -124 53 -275 76 -381 21 -96
30 -357 15 -443 -6 -38 -25 -110 -41 -160 -16 -49 -39 -132 -50 -184 -12 -51
-30 -110 -41 -131 -27 -52 -43 -138 -35 -184 4 -21 19 -49 32 -63 21 -21 31
-24 62 -19 38 7 55 22 155 140 27 31 54 56 61 56 7 0 26 6 42 14 61 30 205 28
279 -3 11 -5 40 -17 65 -27 95 -38 279 -215 329 -316 55 -109 35 -242 -44
-296 -35 -24 -176 -72 -212 -72 -13 0 -32 -4 -41 -9 -9 -5 -118 -14 -242 -21
-124 -6 -337 -18 -475 -26 -271 -15 -1011 -21 -1245 -9 -148 8 -804 -20 -825
-35 -5 -3 -30 -7 -55 -8 -212 -8 -493 -24 -530 -32 -25 -5 -101 -14 -170 -20
-69 -6 -132 -14 -140 -17 -26 -11 -42 -13 -195 -29 -82 -9 -157 -19 -165 -22
-21 -8 -406 -39 -645 -52 -140 -8 -233 -8 -310 -1 -112 11 -904 29 -1815 41
-470 7 -630 14 -900 39 -172 17 -409 31 -693 41 -148 5 -274 13 -280 17 -7 5
-86 16 -177 25 -195 20 -425 54 -448 67 -9 5 -52 14 -95 21 -43 7 -80 17 -83
21 -3 5 -16 9 -29 9 -30 0 -188 52 -260 84 -178 82 -290 142 -341 182 -34 27
-75 58 -90 69 -16 11 -54 43 -84 70 -76 70 -146 125 -159 125 -14 0 -251 238
-251 251 0 5 -29 45 -65 88 -36 43 -65 82 -65 85 0 4 -21 35 -47 70 -68 91
-126 187 -180 296 -25 52 -50 104 -55 114 -14 28 -66 191 -74 232 -3 19 -10
37 -15 40 -5 3 -9 12 -9 20 0 8 -9 33 -19 57 -11 23 -36 89 -55 147 -31 95
-60 170 -87 225 -48 99 -115 502 -125 745 -2 74 -12 205 -21 290 -17 163 -14
419 6 530 12 62 22 218 61 942 6 108 15 228 20 265 5 37 18 136 29 218 11 83
24 164 29 180 5 17 15 93 22 170 7 77 16 145 20 150 4 6 13 69 19 140 7 72 16
139 21 150 5 11 13 69 19 128 6 59 20 152 31 206 11 54 24 138 30 187 27 249
86 679 94 692 2 4 12 61 21 127 9 66 20 129 25 140 4 11 13 63 19 115 6 52 16
122 21 155 5 33 14 143 20 245 7 102 15 203 20 225 5 22 16 114 24 205 9 91
20 183 25 205 5 22 15 87 21 145 7 58 16 119 21 135 5 17 16 95 24 175 37 361
59 548 68 570 22 55 34 565 17 729 -11 100 -2 149 41 217 10 17 19 47 19 67 0
26 7 41 26 56 32 25 46 26 83 6 18 -9 35 -30 46 -57 24 -61 60 -105 103 -127
26 -13 45 -34 61 -65 22 -44 22 -51 12 -154 -18 -191 -23 -396 -26 -1047 -4
-709 5 -1088 29 -1210 8 -44 20 -120 26 -170 6 -49 18 -114 26 -145 8 -30 17
-80 20 -110 6 -56 18 -104 59 -240 13 -41 26 -95 30 -120 7 -48 9 -56 49 -140
14 -30 37 -91 52 -135 15 -44 30 -84 34 -90 3 -5 14 -32 24 -60 10 -27 21 -59
26 -70 5 -11 11 -35 14 -53 3 -19 12 -48 20 -65 29 -64 76 -182 76 -190 0 -5
6 -23 14 -40 24 -52 64 -158 85 -222 10 -33 31 -83 45 -111 14 -29 26 -57 26
-63 0 -6 11 -29 25 -51 14 -22 25 -44 25 -50 0 -5 9 -15 20 -22 11 -7 20 -17
20 -22 0 -6 14 -25 32 -43 38 -39 85 -44 113 -13 26 29 31 137 10 230 -30 133
-33 150 -25 155 5 3 9 63 9 134 1 98 -2 139 -14 168 -9 20 -21 85 -26 143 -6
58 -15 110 -20 116 -5 6 -14 112 -19 235 -6 123 -15 237 -20 252 -30 92 -36
746 -11 1128 6 85 16 282 22 439 6 157 15 335 20 395 4 61 15 207 23 325 9
118 20 244 26 280 5 36 17 157 26 270 9 113 17 207 19 210 2 3 10 44 18 90 17
98 9 190 -20 222 -44 51 -165 138 -200 144 -20 4 -63 22 -95 41 -31 18 -76 38
-100 43 -81 17 -114 27 -139 43 -68 43 -148 21 -195 -56 -33 -51 -41 -57 -79
-56 -33 0 -70 27 -103 76 -28 40 -28 51 5 85 35 36 24 57 -39 78 -25 9 -53 22
-62 29 -22 19 -20 57 6 98 11 20 23 51 25 70 6 53 48 118 104 158 50 36 108
115 109 148 0 40 -19 57 -64 57 -34 0 -60 -10 -120 -46 -74 -44 -79 -46 -119
-36 -23 6 -57 13 -75 16 -19 3 -47 15 -63 27 -37 26 -32 55 21 119 20 25 46
65 57 90 12 25 37 68 56 97 49 73 57 118 67 358 4 116 13 235 19 265 6 30 20
107 32 170 21 116 34 150 74 205 12 17 25 47 28 67 10 65 308 424 368 443 10
3 21 14 24 24 3 10 16 26 28 35 12 9 49 37 82 62 33 25 83 56 110 71 28 14 64
38 80 53 45 42 194 118 245 126 25 4 57 13 71 20 25 13 132 39 284 70 39 8 77
19 86 24 9 4 67 16 129 25 62 9 125 22 139 28 14 6 80 14 146 18 144 8 558 1
635 -10z m-2692 -2538 c2 -12 -9 -35 -27 -56 -17 -19 -31 -38 -31 -41 0 -31
-80 -64 -121 -51 -20 7 -21 12 -16 74 9 89 25 103 121 99 64 -3 71 -5 74 -25z
m-98 -302 c21 -40 11 -76 -36 -137 -69 -89 -72 -89 -76 12 -3 93 5 110 62 133
35 14 38 13 50 -8z m866 -384 c19 -12 54 -36 77 -54 23 -18 59 -42 79 -53 69
-37 70 -41 64 -292 -5 -255 -17 -378 -39 -428 -34 -78 -50 -191 -52 -390 -1
-107 -7 -274 -13 -370 -6 -96 -12 -274 -13 -395 -2 -232 -9 -348 -36 -533 -20
-140 -13 -391 11 -431 4 -5 11 -103 17 -218 6 -114 14 -212 18 -218 4 -5 8
-118 10 -250 2 -227 15 -470 28 -525 5 -22 14 -42 54 -122 5 -10 9 -38 9 -64
0 -41 -2 -45 -22 -42 -14 2 -25 14 -33 38 -7 20 -25 43 -43 55 -17 11 -31 23
-32 27 0 4 -5 19 -12 35 -6 15 -19 57 -28 93 -10 36 -30 106 -45 155 -15 50
-39 130 -51 179 -13 49 -28 94 -33 100 -13 15 -48 112 -56 156 -4 19 -16 54
-26 77 -17 37 -42 134 -56 213 -20 119 -27 146 -44 173 -10 18 -19 42 -19 53
0 12 -6 39 -14 61 -7 21 -19 95 -25 163 -6 69 -16 134 -21 145 -5 11 -16 94
-26 185 -9 91 -20 197 -25 235 -11 101 -11 1049 1 1185 6 63 15 223 20 355 4
132 14 253 20 270 6 16 15 82 19 147 8 112 10 120 44 171 49 73 73 95 137 123
63 27 101 25 156 -9z"/>
<path d="M2029 13911 c-45 -28 -143 -127 -191 -191 -31 -41 -58 -138 -58 -206
0 -100 40 -245 78 -286 62 -67 283 -98 380 -54 23 10 42 24 42 29 0 6 3 8 6 4
14 -14 62 25 87 70 39 72 87 221 87 270 0 49 -54 209 -80 238 -11 11 -26 37
-34 57 -9 20 -28 43 -43 51 -16 8 -41 22 -58 31 -20 10 -54 16 -101 16 -60 0
-76 -4 -115 -29z m258 -224 c21 -21 30 -126 14 -156 -9 -16 -21 -21 -52 -21
-33 0 -47 6 -75 34 -30 30 -34 40 -34 88 0 30 6 60 13 67 17 18 113 9 134 -12z"/>
<path d="M4847 13519 c-99 -23 -209 -120 -274 -239 -67 -122 -73 -209 -24
-364 28 -90 58 -122 144 -147 39 -13 90 -30 112 -40 53 -25 129 -24 201 2 32
11 80 27 106 34 67 19 90 37 151 119 47 62 57 83 72 155 16 73 17 93 6 164 -7
45 -15 91 -18 102 -9 31 -152 173 -187 185 -25 8 -247 43 -250 39 -1 -1 -18
-5 -39 -10z m286 -238 c58 -65 70 -147 27 -186 -29 -27 -101 -31 -121 -9 -35
42 -54 195 -27 222 7 7 29 12 49 12 30 0 43 -7 72 -39z"/>
<path d="M2758 12750 c-47 -37 -52 -67 -22 -145 33 -89 38 -95 86 -95 78 0
110 38 80 97 -11 21 -27 62 -36 91 -24 72 -60 90 -108 52z"/>
<path d="M3293 12634 c-29 -11 -59 -35 -97 -79 -60 -68 -64 -79 -41 -112 33
-47 135 -36 194 20 20 20 51 49 69 66 35 33 41 64 16 99 -18 26 -75 29 -141 6z"/>
<path d="M4855 11835 c-134 -40 -173 -114 -88 -166 65 -39 74 -62 51 -126 -16
-45 -47 -44 -87 3 -68 77 -175 86 -202 17 -12 -33 7 -64 62 -98 50 -32 119
-99 119 -115 0 -7 -14 -35 -31 -62 -33 -50 -73 -79 -99 -70 -27 9 -62 46 -80
87 -26 57 -71 102 -118 116 -85 25 -122 -44 -63 -119 40 -52 65 -120 50 -138
-6 -8 -20 -14 -31 -14 -24 0 -111 73 -143 121 -13 20 -48 51 -78 68 -30 17
-60 38 -67 46 -18 22 -87 38 -150 36 -59 -2 -94 9 -151 46 -27 18 -56 25 -110
29 -41 3 -88 10 -106 15 -48 15 -131 -12 -176 -59 -40 -41 -66 -119 -92 -272
-8 -47 -22 -114 -30 -150 -9 -36 -20 -121 -25 -190 -4 -69 -22 -203 -39 -299
-29 -168 -46 -342 -76 -811 -8 -124 -19 -247 -25 -273 -5 -26 -10 -80 -10
-120 0 -40 -7 -130 -15 -202 -27 -243 -18 -862 16 -1030 6 -27 14 -86 19 -130
36 -339 51 -435 72 -461 12 -16 46 -145 63 -237 7 -43 18 -84 23 -90 5 -7 15
-28 22 -47 12 -36 17 -52 44 -173 22 -99 51 -176 124 -327 79 -165 91 -180
148 -180 59 0 90 38 98 117 4 32 13 88 21 124 7 36 21 139 30 230 25 262 36
337 52 370 9 19 20 96 29 212 25 318 33 381 55 452 8 27 33 247 59 530 5 55
18 134 29 175 20 76 34 143 51 235 5 28 13 115 19 195 7 103 18 178 39 260 19
70 31 141 31 182 1 109 20 275 47 403 14 66 30 179 35 250 5 72 16 153 24 182
8 28 15 63 15 78 0 15 7 39 15 53 28 51 45 123 45 189 0 56 4 71 26 100 32 43
80 73 115 73 19 0 33 -10 52 -37 26 -40 32 -65 47 -193 5 -44 18 -100 28 -124
17 -37 25 -44 56 -50 45 -9 117 21 141 57 8 13 20 52 26 85 11 73 -6 179 -47
283 l-26 67 27 46 c33 56 59 76 100 76 41 0 55 -16 55 -62 0 -21 11 -67 25
-104 14 -36 25 -76 25 -88 0 -12 9 -50 21 -84 28 -82 63 -112 130 -112 106 0
122 66 69 277 -36 144 -82 272 -118 333 -25 42 -27 52 -25 150 3 129 11 164
42 168 24 4 71 -32 71 -53 0 -6 18 -48 40 -94 23 -47 40 -97 40 -117 0 -23 9
-44 29 -66 24 -27 36 -32 88 -36 52 -4 63 -1 89 21 28 24 29 29 28 104 -1 74
-3 83 -53 178 -54 103 -105 165 -178 216 -23 16 -44 37 -47 47 -5 14 -118 55
-241 87 -5 1 -28 -3 -50 -10z m-1050 -536 c97 -10 114 -15 142 -39 17 -16 61
-43 98 -61 60 -29 69 -38 96 -91 30 -59 30 -59 23 -191 -5 -125 -19 -198 -57
-302 -8 -22 -20 -107 -27 -190 -10 -128 -19 -188 -34 -240 -1 -5 -13 -43 -25
-83 -32 -104 -40 -165 -50 -349 -5 -90 -13 -168 -18 -175 -5 -7 -18 -67 -27
-133 -10 -66 -22 -133 -27 -150 -4 -16 -13 -70 -19 -120 -6 -49 -15 -115 -20
-145 -6 -30 -14 -89 -20 -130 -6 -41 -19 -115 -29 -165 -11 -49 -24 -151 -30
-225 -6 -74 -20 -172 -31 -216 -10 -45 -26 -144 -35 -220 -9 -77 -21 -159 -26
-184 -6 -25 -14 -103 -19 -175 -14 -201 -28 -327 -55 -489 -16 -96 -25 -188
-25 -261 0 -63 -4 -116 -8 -119 -14 -9 -29 8 -42 49 -7 22 -28 64 -47 94 -25
39 -41 83 -59 165 -13 61 -34 140 -46 176 -26 80 -43 180 -63 370 -8 80 -20
177 -26 215 -6 39 -15 129 -20 200 -5 72 -14 191 -20 265 -16 203 -20 520 -9
655 6 66 15 212 20 323 6 112 13 208 16 213 3 5 10 82 15 172 5 89 18 245 29
347 10 102 24 275 30 385 10 189 16 236 55 415 9 41 25 116 35 165 20 100 56
190 89 220 19 17 69 29 136 34 11 0 70 -4 130 -10z"/>
<path d="M6326 4793 c-25 -51 -36 -402 -25 -753 8 -249 15 -319 46 -430 26
-97 41 -153 66 -245 14 -49 37 -114 52 -144 14 -29 35 -77 46 -105 23 -63 62
-125 118 -189 23 -27 50 -66 61 -86 10 -21 38 -50 61 -66 24 -15 63 -46 88
-69 61 -55 159 -129 196 -149 17 -8 62 -36 100 -62 166 -109 401 -202 545
-215 52 -5 145 -14 205 -20 77 -7 153 -7 255 0 129 10 152 14 208 41 45 22 72
43 92 72 16 23 47 67 68 97 40 56 62 132 62 211 0 37 -50 146 -91 198 -24 30
-115 103 -207 165 -43 29 -72 55 -72 66 0 9 14 35 31 56 76 94 108 213 78 290
-16 43 -154 209 -193 234 -43 26 -53 57 -32 98 9 17 16 39 16 48 0 18 -64 84
-81 84 -6 0 -25 10 -42 23 -18 13 -51 31 -73 41 -28 12 -48 30 -61 54 -18 37
-97 89 -135 91 -25 1 -32 -17 -15 -42 7 -12 21 -45 31 -73 18 -54 77 -120 134
-148 42 -22 41 -43 -7 -87 -67 -60 -68 -125 -3 -158 20 -10 76 -56 125 -102
75 -73 87 -88 87 -117 0 -46 -13 -66 -66 -102 -43 -30 -48 -31 -110 -24 -39 4
-85 17 -112 31 -122 65 -223 -17 -112 -91 22 -14 47 -41 57 -60 18 -35 48 -61
132 -113 71 -45 96 -64 188 -144 48 -41 116 -94 151 -117 78 -54 81 -74 15
-105 -44 -20 -63 -22 -233 -21 -225 1 -349 23 -478 84 -46 22 -90 40 -97 40
-7 0 -57 22 -112 50 -90 45 -120 66 -238 163 -22 18 -60 45 -85 59 -44 25 -90
78 -143 165 -15 23 -33 45 -40 50 -8 4 -31 41 -52 82 -20 41 -46 87 -57 101
-23 31 -83 172 -105 245 -35 118 -42 157 -52 280 -6 72 -20 240 -31 375 -36
437 -44 472 -106 478 -25 3 -32 -2 -48 -35z"/>
</g>
</svg>
